<svg width="1200" height="260" viewBox="0 0 1200 260" xmlns="http://www.w3.org/2000/svg">
  <defs>
    <linearGradient id="bgGrad" x1="0%" y1="0%" x2="100%" y2="100%">
      <stop offset="0%" stop-color="#0b3d91"/>
      <stop offset="55%" stop-color="#0d1b2a"/>
      <stop offset="100%" stop-color="#1a1a1a"/>
    </linearGradient>
    <linearGradient id="railShine" x1="0%" y1="0%" x2="100%" y2="0%">
      <stop offset="0%" stop-color="#ff9933" stop-opacity="0"/>
      <stop offset="50%" stop-color="#ff9933" stop-opacity="0.9"/>
      <stop offset="100%" stop-color="#ff9933" stop-opacity="0"/>
    </linearGradient>
    <radialGradient id="glow" cx="50%" cy="50%" r="50%">
      <stop offset="0%" stop-color="#1a73c1" stop-opacity="0.35"/>
      <stop offset="100%" stop-color="#1a73c1" stop-opacity="0"/>
    </radialGradient>
  </defs>

  <rect width="1200" height="260" fill="url(#bgGrad)"/>
  <circle cx="980" cy="60" r="180" fill="url(#glow)"/>
  <circle cx="150" cy="220" r="140" fill="url(#glow)"/>

  <g opacity="0.55">
    <rect x="0" y="190" width="1200" height="6" fill="#3a3a3a"/>
    <rect x="0" y="222" width="1200" height="6" fill="#3a3a3a"/>
    <g fill="#5a5a5a">
      <rect x="20" y="184" width="14" height="50"/>
      <rect x="90" y="184" width="14" height="50"/>
      <rect x="160" y="184" width="14" height="50"/>
      <rect x="230" y="184" width="14" height="50"/>
      <rect x="300" y="184" width="14" height="50"/>
      <rect x="370" y="184" width="14" height="50"/>
      <rect x="440" y="184" width="14" height="50"/>
      <rect x="510" y="184" width="14" height="50"/>
      <rect x="580" y="184" width="14" height="50"/>
      <rect x="650" y="184" width="14" height="50"/>
      <rect x="720" y="184" width="14" height="50"/>
      <rect x="790" y="184" width="14" height="50"/>
      <rect x="860" y="184" width="14" height="50"/>
      <rect x="930" y="184" width="14" height="50"/>
      <rect x="1000" y="184" width="14" height="50"/>
      <rect x="1070" y="184" width="14" height="50"/>
      <rect x="1140" y="184" width="14" height="50"/>
    </g>
    <rect x="0" y="196" width="1200" height="4" fill="url(#railShine)"/>
  </g>

  <g stroke="#e63946" stroke-width="3" fill="none" opacity="0.85">
    <path d="M 640 190 L 655 175 L 648 160 L 665 145"/>
    <circle cx="648" cy="160" r="5" fill="#e63946" stroke="none"/>
  </g>

  <text x="60" y="90" font-family="Segoe UI, Arial, sans-serif" font-size="46" font-weight="700" fill="#ffffff">
    Bharatiya Rail
  </text>
  <text x="60" y="130" font-family="Segoe UI, Arial, sans-serif" font-size="24" font-weight="600" fill="#ff9933">
    Track Fault Detection AI
  </text>
  <text x="60" y="160" font-family="Segoe UI, Arial, sans-serif" font-size="15" fill="#c9d6e3">
    Defect classification &#8226; severity triage &#8226; explainable AI &#8226; inspection reporting
  </text>

  <g transform="translate(1000,30)">
    <rect x="0" y="0" width="140" height="8" fill="#ff9933"/>
    <rect x="0" y="8" width="140" height="8" fill="#ffffff"/>
    <rect x="0" y="16" width="140" height="8" fill="#138808"/>
    <circle cx="70" cy="12" r="3.2" fill="#0b3d91"/>
  </g>
</svg>
